:SAMPLES-PER-SECOND 24
:FULLY-SPECIFIED
:DEGREES
116
root  2.1247 40.0741 15.4424 21.1998 3.57452 -22.8145
RightUpLeg  -51.4295 -10.9288 15.5511
RightLeg  15.5713 3.33236 0.961278
RightFoot  -5.19182 -0.461282 7.91557
RightToes  -1.74623e-010 0 -2.59999e-017
Spine  25.0267 -6.62062 -14.2959
Spine1  9.52669 -17.5462 29.8334
HEad  -6.447 -50.7422 28.2565
LeftShoulder1  2.18697 -4.63532 -20.4483
LeftArm  3.92773 -14.2664 -42.048
LeftForeArm  48.0393 -75.1464 -40.4337
LeftHand  -0.311712 2.7998 13.6767
RightShoulder  3.87204 6.02511 34.7446
RightArm  -35.9764 -24.0985 5.57154
RightForeArm  13.0851 64.2652 22.9677
RightHand  -1.99456 5.33985 -21.6274
LeftUpLeg  -47.0429 65.8345 -19.3758
LeftLeg  27.5492 18.6066 10.5844
LeftFoot  -10.9985 0.110952 -15.0885
LeftToes  -6.27559e-011 -2.10356e-011 8.24929e-012
117
root  4.05483 41.4026 14.947 37.3746 -13.8205 -35.4521
RightUpLeg  -64.5367 -8.48499 20.3391
RightLeg  45.4782 2.23634 2.75369
RightFoot  -2.47438 -1.32025 16.8989
RightToes  -1.74623e-010 0 -2.59999e-017
Spine  26.2245 -6.00547 -13.6238
Spine1  12.2763 -17.0833 30.4353
HEad  -12.9498 -51.1283 37.4374
LeftShoulder1  2.32767 -4.86327 -21.4596
LeftArm  2.46641 -5.17812 -41.1418
LeftForeArm  56.3939 -77.6631 -53.5108
LeftHand  -0.311562 3.47904 18.4461
RightShoulder  4.09267 6.22856 36.1378
RightArm  -34.1374 -19.8318 12.8256
RightForeArm  10.4081 60.6567 19.5464
RightHand  -2.22518 6.62864 -21.5621
LeftUpLeg  -41.2148 49.256 -1.08569
LeftLeg  26.5168 32.0735 13.1184
LeftFoot  -0.830259 1.0406 -11.2161
LeftToes  -6.27559e-011 -2.10356e-011 8.24929e-012
118
root  5.2032 41.6577 15.0946 58.3482 -21.4337 -50.0643
RightUpLeg  -76.7201 -15.2511 17.458
RightLeg  74.7175 3.06186 11.3933
RightFoot  -4.56214 -0.995719 15.2569
RightToes  -1.74623e-010 0 -2.59999e-017
Spine  22.5911 -5.60565 -10.6788
Spine1  14.1056 -14.7542 28.8801
HEad  -16.2798 -47.3316 40.2666
LeftShoulder1  2.50737 -4.83477 -23.8513
LeftArm  2.08367 5.07838 -40.5722
LeftForeArm  69.4025 -79.209 -68.7443
LeftHand  -0.279992 4.02562 23.5212
RightShoulder  4.26619 6.38708 37.1863
RightArm  -32.9911 -18.9876 13.5841
RightForeArm  6.31045 55.1299 15.7891
RightHand  -2.35458 7.46768 -21.3466
LeftUpLeg  -38.7526 34.904 19.4218
LeftLeg  25.7806 32.4522 10.7624
LeftFoot  2.33198 0.905787 -7.56878
LeftToes  -6.27559e-011 -2.10356e-011 8.24929e-012
119
root  5.59993 41.6344 15.5701 80.3185 -19.9956 -63.7745
RightUpLeg  -77.7479 -28.1066 4.64962
RightLeg  81.1943 1.54027 8.91151
RightFoot  -13.5877 0.162076 14.9325
RightToes  -1.74623e-010 0 -2.59999e-017
Spine  15.7949 -2.97329 -6.07364
Spine1  14.3834 -12.0013 30.0588
HEad  -15.499 -43.4088 39.9778
LeftShoulder1  2.53447 -4.47624 -25.6166
LeftArm  4.18015 17.6298 -44.4323
LeftForeArm  84.0865 -79.9186 -81.26
LeftHand  -0.257549 4.24579 25.7656
RightShoulder  4.31786 6.42984 37.5156
RightArm  -33.4018 -20.8305 8.63246
RightForeArm  -0.864612 47.2869 12.2442
RightHand  -2.57398 8.00604 -22.3581
LeftUpLeg  -35.2761 31.4021 34.9721
LeftLeg  13.648 29.3617 4.79521
LeftFoot  3.32017 0.697126 -5.58118
LeftToes  -6.27559e-011 -2.10356e-011 8.24929e-012
120
root  6.00024 41.1075 16.8622 96.6774 -14.4368 -71.2329
RightUpLeg  -58.7244 -38.1321 -13.8297
RightLeg  48.8505 1.56982 1.58378
RightFoot  -1.89794 -0.59746 7.06715
RightToes  -1.74623e-010 0 -2.59999e-017
Spine  10.6117 0.627753 -1.60509
Spine1  15.0716 -10.9244 34.2647
HEad  -12.9247 -41.1761 41.8105
LeftShoulder1  2.40441 -4.26838 -24.7507
LeftArm  7.64114 29.0856 -47.1264
LeftForeArm  90.2182 -80.1159 -84.822
LeftHand  -0.303635 3.98929 24.8222
RightShoulder  4.04254 6.12374 36.076
RightArm  -37.5676 -24.406 7.42984
RightForeArm  -6.99189 39.625 9.69586
RightHand  -2.96141 7.9838 -25.6101
LeftUpLeg  -34.4461 35.3541 41.5958
LeftLeg  1.55726 30.6722 -0.501661
LeftFoot  4.24733 0.225052 -1.83278
LeftToes  -6.27559e-011 -2.10356e-011 8.24929e-012
121
root  5.32917 40.6245 16.6962 104.807 -11.0996 -71.4626
RightUpLeg  -21.7237 -25.9794 -39.4061
RightLeg  10.4318 -6.56566 -3.96938
RightFoot  17.0665 -0.174654 0.573893
RightToes  -1.74623e-010 0 -2.59999e-017
Spine  7.97261 1.90985 -0.626677
Spine1  14.167 -9.24105 34.1723
HEad  -10.2627 -39.0081 41.6931
LeftShoulder1  2.19414 -4.12967 -22.4357
LeftArm  10.1 34.391 -43.4412
LeftForeArm  93.6658 -80.2181 -86.5492
LeftHand  -0.192202 4.42105 22.4088
RightShoulder  3.79478 5.82271 34.8017
RightArm  -42.7345 -29.4348 10.0249
RightForeArm  -10.5541 35.0056 8.45093
RightHand  -3.37335 7.17006 -30.7533
LeftUpLeg  -41.9152 40.9332 42.1699
LeftLeg  4.78034 32.6984 0.237432
LeftFoot  1.68804 0.146995 -1.38887
LeftToes  -6.27559e-011 -2.10356e-011 8.24929e-012
122
root  4.55714 40.4458 16.0041 111.056 -9.96232 -71.6592
RightUpLeg  -7.01844 -13.6061 -45.6908
RightLeg  15.5751 1.01835 -4.05038
RightFoot  25.8212 -3.22205 10.1283
RightToes  -1.74623e-010 0 -2.59999e-017
Spine  6.35252 2.42204 0.296266
Spine1  12.9814 -6.74013 30.5262
HEad  -9.32058 -35.4359 37.6494
LeftShoulder1  1.99371 -3.61763 -21.6527
LeftArm  6.30016 34.159 -38.2204
LeftForeArm  94.8938 -80.2077 -88.4031
LeftHand  0.106283 5.92449 23.1031
RightShoulder  3.77522 5.8232 34.5898
RightArm  -42.7823 -31.3242 10.8377
RightForeArm  -12.5966 32.9212 7.96484
RightHand  -3.9482 6.88527 -36.3719
LeftUpLeg  -47.2599 43.9588 42.3677
LeftLeg  8.56294 34.7678 3.35017
LeftFoot  0.453289 0.245736 -2.3376
LeftToes  -6.27559e-011 -2.10356e-011 8.24929e-012
123
root  4.37414 40.8574 15.0928 117.706 -10.3357 -73.9833
RightUpLeg  -3.3578 -18.9491 -48.9466
RightLeg  46.3257 7.31624 8.89523
RightFoot  32.9469 -4.77941 12.3528
RightToes  -1.74623e-010 0 -2.59999e-017
Spine  5.26558 3.0259 -1.27507
Spine1  12.9203 -5.50628 26.3564
HEad  -10.9157 -31.6983 34.7241
LeftShoulder1  1.99751 -3.29917 -23.0937
LeftArm  0.776718 30.2568 -36.0219
LeftForeArm  84.8907 -79.9729 -80.9694
LeftHand  0.252771 6.55074 25.42
RightShoulder  3.73415 5.82389 34.1499
RightArm  -39.4755 -27.9551 10.7587
RightForeArm  -9.15113 34.9815 8.34953
RightHand  -4.45504 7.4541 -39.0471
LeftUpLeg  -43.3018 44.5261 46.0963
LeftLeg  1.15957 36.769 0.367314
LeftFoot  4.81858 0.0493295 -0.649222
LeftToes  -6.27559e-011 -2.10356e-011 8.24929e-012
124
root  4.81238 41.2142 14.6106 124.901 -12.9165 -77.2592
RightUpLeg  -0.599764 -22.4895 -48.5255
RightLeg  75.0063 1.94559 7.23941
RightFoot  39.0665 -6.48082 14.3302
RightToes  -1.74623e-010 0 -2.59999e-017
Spine  4.7124 3.82482 -4.14529
Spine1  12.7574 -5.49947 23.79
HEad  -13.3146 -28.7289 33.5133
LeftShoulder1  2.16395 -3.51267 -24.6464
LeftArm  2.37296 21.6444 -36.8742
LeftForeArm  66.5247 -78.8224 -61.9177
LeftHand  -0.0142632 5.33823 23.6617
RightShoulder  3.74085 5.86799 34.0339
RightArm  -37.8808 -25.3705 10.4164
RightForeArm  -0.810338 43.4414 10.6627
RightHand  -4.21344 7.41082 -37.199
LeftUpLeg  -38.8991 43.8797 47.1754
LeftLeg  -7.95613 37.2317 -4.88124
LeftFoot  8.54052 -0.429972 2.15587
LeftToes  -6.27559e-011 -2.10356e-011 8.24929e-012
125
root  5.04405 40.9208 14.9901 134.048 -16.2824 -82.7588
RightUpLeg  -0.437382 -24.9842 -44.0869
RightLeg  101.172 -1.89199 8.843
RightFoot  42.2129 -8.75136 17.8861
RightToes  -1.74623e-010 0 -2.59999e-017
Spine  3.1199 4.57716 -5.48697
Spine1  11.5979 -4.53007 22.0138
HEad  -15.3096 -25.7534 31.7021
LeftShoulder1  2.23468 -3.57412 -25.4131
LeftArm  6.59519 12.9969 -41.2025
LeftForeArm  57.2729 -77.3634 -50.1675
LeftHand  -0.138074 4.64973 20.5997
RightShoulder  3.85988 6.02637 34.6136
RightArm  -38.6401 -25.208 8.50207
RightForeArm  7.81202 56.0606 16.2556
RightHand  -3.64517 6.60331 -34.5495
LeftUpLeg  -39.9856 43.7892 45.0328
LeftLeg  -3.4957 39.2238 -3.63784
LeftFoot  4.5801 -0.276557 1.77492
LeftToes  -6.27559e-011 -2.10356e-011 8.24929e-012
126
root  5.29245 40.4708 15.8146 144.499 -17.4373 -92.265
RightUpLeg  -0.968162 -33.274 -39.0887
RightLeg  119.154 -5.67651 10.2326
RightFoot  42.4989 -9.86254 19.9104
RightToes  -1.74623e-010 0 -2.59999e-017
Spine  2.33732 5.64414 -7.07366
Spine1  10.9477 -3.26026 20.2692
HEad  -16.5419 -22.4038 29.8511
LeftShoulder1  2.25142 -3.47776 -26.1141
LeftArm  7.51206 9.19181 -46.0937
LeftForeArm  56.8018 -77.3527 -50.417
LeftHand  -0.161445 4.56231 21.5957
RightShoulder  3.86574 6.06342 34.5182
RightArm  -39.3946 -23.0249 7.74439
RightForeArm  24.2779 70.4219 31.3793
RightHand  -3.16156 5.27092 -33.7918
LeftUpLeg  -38.743 42.6455 44.2234
LeftLeg  4.45308 46.0684 0.883469
LeftFoot  -0.0712718 -0.108456 1.09243
LeftToes  -6.27559e-011 -2.10356e-011 8.24929e-012
127
root  5.15678 40.1301 16.8191 153.411 -16.2577 -102.41
RightUpLeg  1.21416 -40.324 -35.5791
RightLeg  125.407 -5.20476 7.38404
RightFoot  44.3689 -10.3592 20.0985
RightToes  -1.74623e-010 0 -2.59999e-017
Spine  2.21384 5.84208 -8.32511
Spine1  11.1638 -3.13026 19.3402
HEad  -17.0612 -19.3746 28.258
LeftShoulder1  2.34997 -3.66096 -26.6856
LeftArm  8.74792 8.48785 -47.5326
LeftForeArm  62.1472 -78.294 -57.2037
LeftHand  -0.289877 3.9225 22.533
RightShoulder  3.89933 6.11193 34.6622
RightArm  -37.5864 -20.0209 7.86294
RightForeArm  98.1492 79.3246 101.997
RightHand  -2.268 2.75194 -31.857
LeftUpLeg  -35.6812 39.1133 43.224
LeftLeg  13.138 53.9314 9.02222
LeftFoot  -2.17032 0.0159079 -0.0422846
LeftToes  -6.27559e-011 -2.10356e-011 8.24929e-012
128
root  4.57576 40.2253 17.7393 161.671 -12.2852 -112.918
RightUpLeg  1.80132 -38.6824 -33.8285
RightLeg  122.086 -5.2706 8.38762
RightFoot  44.7079 -10.7311 20.6469
RightToes  -1.74623e-010 0 -2.59999e-017
Spine  -0.502386 6.05374 -8.7002
Spine1  13.0336 -2.95743 17.5827
HEad  -15.8841 -16.1536 24.7996
LeftShoulder1  2.42784 -3.8163 -27.0681
LeftArm  11.0322 8.80621 -46.6964
LeftForeArm  66.08 -78.7075 -60.2051
LeftHand  -0.398413 3.23603 21.1967
RightShoulder  4.05537 6.24912 35.6749
RightArm  -34.7487 -18.2259 6.91664
RightForeArm  153.309 67.0432 154.98
RightHand  -1.20518 -0.0706205 -26.0503
LeftUpLeg  -30.3521 36.4765 42.0613
LeftLeg  19.8567 56.8675 14.9334
LeftFoot  -1.78522 0.121735 -1.32798
LeftToes  -6.27559e-011 -2.10356e-011 8.24929e-012
